<svg viewBox="135 0 796.4 368.5" aria-hidden="true" xmlns="http://www.w3.org/2000/svg" xmlns:xlink="http://www.w3.org/1999/xlink" class="header-large__logo"><path fill="currentColor" d="M648.3 198.1c-3.1-4.5-7.1-8.2-12.1-11-4.8-2.7-10.3-4.8-16.4-6.3-5.9-1.5-12-2.7-18.3-3.7-8.1-1.4-15.3-2.7-21.4-4-5.9-1.3-10.9-2.9-14.8-4.8-3.7-1.8-6.4-4-8.2-6.4-1.7-2.3-2.6-5.4-2.6-9.2 0-3.2.8-6.1 2.5-8.6 1.7-2.6 4.1-4.8 7.1-6.6 3.1-1.9 6.9-3.3 11.3-4.3s9.3-1.5 14.5-1.5c5.2 0 11.2.4 16.4 1.6 7.9 1.7 14.8 5.6 18.3 10.9 1.6 2.5 2.5 5.4 2.5 10h20.7c-.2-7.3-1.8-13.7-5-18.9-3.3-5.4-7.7-9.8-13.1-13-5.3-3.2-11.3-5.5-18-6.9-6.6-1.4-13.4-2-20.3-2-7.2-.1-14.4.6-21.4 2-6.6 1.4-12.7 3.7-18 6.9-5.4 3.2-9.8 7.6-13.1 13-3.3 5.5-5 12.2-5 20 0 11.8 4.7 20.7 13.9 26.6 8.7 5.5 21.4 9.6 37.8 12.1 6.2 1 12.3 2 18 3 5.6 1 10.7 2.4 15.1 4.1 4.2 1.7 7.6 3.9 10.1 6.7 2.3 2.5 3.5 6.1 3.5 10.5 0 4.7-1 8.6-3.1 11.6-2.1 3.1-5 5.5-8.4 7.3-3.6 1.9-7.8 3.2-12.4 4-4.4.8-10.6 1.3-15.7 1.2-4.7 0-10.9-.1-17-1.2-4.6-.8-8.8-2.1-12.4-4-3.5-1.8-6.3-4.3-8.4-7.3-2.1-3-3.1-7.2-3.1-14v-1.5h-20.7v1.5c0 8.8 1.9 16.2 5.5 22.1 3.6 5.8 8.4 10.4 14.2 13.9 5.7 3.4 12.1 5.7 19.1 7.1 6.7 1.3 13.4 1.9 19.9 1.9h4.2c6.7 0 13.5-.7 20.4-1.9 7-1.3 13.4-3.7 19.1-7.1 5.8-3.4 10.5-8.1 14.2-13.9 3.7-5.8 5.5-13.3 5.5-22.1-.2-7.3-1.8-13.2-4.9-17.8zm-504.9 60.1h115.1v-19.3h-94.1v-43.3h79.4v-19.2h-79.4V134h94.1v-19.2H143.4zm252.4-103c-2.6-23.3-23.3-40.5-46.8-40.5h-71.5v143.5h20.9v-52h51.9c27-.1 48.6-23.5 45.5-51zm-45.4 31.2h-51.9v-51.9h51c13.2 0 25 9.5 26.7 22.6 2 15.7-10.3 29.3-25.8 29.3z"></path><path fill="currentColor" d="M499.8 133.9c-14.5-14.3-32.2-21.5-52.7-21.5-15.1 0-28.6 4-40.5 11.7l9.5 17.7c8.8-6.5 19.2-9.8 31-9.8 15.1 0 27.8 5.2 37.7 15.5 10 10.2 15.1 23.3 15.1 38.8 0 15.5-5.1 28.6-15.2 38.8-9.9 10.3-22.6 15.5-37.7 15.5-14.9 0-27.6-5.2-37.7-15.5-4.6-4.8-8.1-10.1-10.6-16.1-.1-.3-.3-.6-.4-.9l-18.8 10.1c.8 1.7 1.7 3.3 2.6 4.9 3.2 5.7 7.2 11.1 12.1 16 14.3 14.1 32 21.3 52.5 21.3 20.6 0 38.4-7.2 52.9-21.3 14.4-14.2 21.7-31.9 21.7-52.8.2-20.7-7.1-38.4-21.5-52.4z"></path></svg>